<?xml version="1.0" standalone="no"?>
<!DOCTYPE svg PUBLIC "-//W3C//DTD SVG 20010904//EN"
 "http://www.w3.org/TR/2001/REC-SVG-20010904/DTD/svg10.dtd">
<svg version="1.0" xmlns="http://www.w3.org/2000/svg"
 width="2171.000000pt" height="1919.000000pt" viewBox="0 0 2171.000000 1919.000000"
 preserveAspectRatio="xMidYMid meet">

<g transform="translate(0.000000,1919.000000) scale(0.100000,-0.100000)"
fill="#000000" stroke="none">
<path d="M13000 14894 c-279 -12 -774 -63 -1005 -105 -300 -54 -483 -90 -590
-118 -22 -5 -101 -24 -175 -42 -187 -44 -362 -92 -540 -147 -210 -65 -327
-103 -342 -112 -10 -5 -22 -10 -28 -10 -11 0 -399 -143 -435 -160 -11 -5 -50
-21 -88 -34 -37 -14 -120 -48 -185 -76 -64 -28 -144 -63 -177 -77 -33 -14 -91
-40 -130 -58 -38 -18 -104 -47 -145 -65 -101 -45 -550 -274 -700 -357 -103
-57 -257 -147 -290 -168 -19 -12 -106 -65 -192 -116 -226 -135 -226 -135 -308
-189 -99 -65 -204 -120 -231 -120 -43 0 -160 156 -284 380 -55 99 -241 414
-290 490 -12 19 -52 82 -89 140 -37 58 -100 152 -141 210 -42 58 -83 116 -92
130 -120 176 -216 282 -298 330 -105 60 -262 59 -358 -4 -125 -81 -203 -204
-324 -506 -19 -47 -40 -98 -47 -115 -31 -67 -51 -118 -112 -289 -103 -286
-168 -461 -274 -741 -11 -27 -35 -97 -54 -155 -33 -99 -113 -318 -174 -475
-30 -78 -81 -141 -145 -178 -23 -14 -97 -48 -165 -76 -68 -29 -140 -61 -160
-71 -20 -11 -40 -20 -44 -20 -9 0 -146 -64 -353 -165 -163 -80 -249 -130 -580
-335 -183 -114 -249 -150 -273 -150 -57 0 -209 78 -797 410 -513 289 -620 347
-805 437 -221 108 -283 127 -410 127 -89 1 -111 -3 -145 -21 -97 -52 -152
-158 -162 -313 -5 -84 31 -384 59 -485 6 -22 19 -80 28 -130 19 -96 42 -196
67 -285 8 -30 22 -82 30 -115 13 -54 29 -111 92 -325 37 -123 83 -275 96 -315
7 -22 43 -134 80 -250 67 -210 103 -314 134 -390 19 -48 21 -203 3 -254 -14
-39 -34 -159 -58 -351 -22 -174 -26 -674 -5 -830 44 -346 74 -474 193 -839 53
-160 226 -527 303 -641 20 -30 44 -68 52 -85 16 -29 15 -30 -24 -65 -28 -24
-78 -49 -159 -79 -317 -116 -493 -191 -798 -341 -343 -169 -432 -227 -473
-310 -29 -58 -18 -107 31 -145 64 -49 89 -42 407 118 364 182 537 264 572 273
16 4 68 22 115 42 110 44 285 111 424 163 80 30 112 37 125 30 27 -15 279
-273 286 -294 10 -27 -16 -59 -122 -150 -263 -225 -708 -649 -794 -758 -53
-66 -71 -113 -57 -153 11 -36 71 -102 101 -111 30 -10 113 41 204 125 179 164
359 333 540 506 224 215 352 324 381 324 20 0 61 -19 149 -70 186 -108 379
-201 535 -258 470 -172 830 -235 1350 -235 348 0 451 11 743 84 185 46 215 59
248 104 26 36 30 53 39 160 12 132 15 149 67 315 98 316 273 564 533 756 108
80 141 100 295 177 255 128 537 223 1045 353 74 19 194 53 265 75 72 22 168
52 215 66 117 35 231 72 255 83 39 18 101 32 125 28 55 -7 10 -82 -95 -155
-27 -19 -68 -48 -90 -64 -59 -44 -380 -200 -540 -263 -224 -88 -264 -105 -560
-240 -16 -8 -60 -28 -97 -45 -37 -17 -69 -31 -71 -31 -12 0 -181 -99 -262
-154 -99 -66 -227 -169 -289 -231 -21 -22 -70 -82 -108 -133 -198 -266 -256
-665 -130 -907 46 -89 135 -150 290 -199 70 -22 102 -26 201 -26 168 0 223 21
501 193 311 192 582 305 985 407 216 55 298 67 593 90 305 23 318 27 344 110
63 204 83 261 120 338 138 293 371 524 683 679 285 142 619 203 1118 203 182
0 169 -11 138 123 -59 249 -76 343 -111 622 -12 91 -12 493 0 615 30 326 101
613 237 963 35 92 195 421 217 447 7 8 28 42 46 75 91 164 279 404 470 599
193 197 315 294 630 497 49 32 344 180 410 207 127 50 347 112 402 112 31 0
45 -29 28 -57 -16 -25 -100 -85 -245 -173 -452 -273 -780 -574 -1076 -985
-194 -269 -334 -549 -447 -895 -70 -214 -87 -277 -107 -415 -9 -55 -20 -116
-26 -135 -18 -66 -39 -345 -39 -530 1 -190 16 -360 45 -510 64 -328 80 -389
169 -656 47 -141 86 -267 86 -281 0 -35 -24 -77 -55 -93 -24 -13 -64 -11 -358
18 -407 40 -563 42 -797 8 -361 -52 -503 -113 -693 -295 -84 -81 -131 -142
-196 -254 -64 -111 -101 -203 -101 -250 0 -55 30 -66 228 -83 306 -27 396 -36
482 -49 47 -7 132 -21 190 -29 181 -28 497 -90 605 -120 28 -8 82 -22 120 -31
268 -65 361 -89 620 -165 39 -12 108 -32 155 -45 47 -13 117 -34 155 -45 39
-12 100 -30 138 -41 225 -65 225 -65 527 -143 96 -25 227 -59 290 -76 119 -32
176 -45 370 -86 312 -66 591 -108 975 -145 323 -31 823 -31 1135 0 270 26 568
77 750 126 230 62 298 81 390 112 104 35 368 136 399 153 9 5 56 28 104 51 89
42 277 151 376 218 29 20 78 53 108 73 99 67 204 151 357 288 236 210 310 291
500 543 105 139 152 187 184 187 34 0 17 -123 -42 -301 -78 -237 -179 -427
-365 -688 -109 -153 -363 -419 -491 -513 -127 -93 -296 -205 -383 -252 -83
-45 -391 -187 -437 -201 -14 -4 -38 -13 -55 -21 -68 -30 -208 -76 -330 -109
-49 -13 -124 -33 -165 -44 -372 -102 -852 -156 -1385 -155 -765 1 -1465 90
-2215 281 -74 19 -196 50 -270 69 -74 18 -166 43 -205 55 -137 41 -191 58
-265 79 -41 12 -138 41 -215 65 -237 73 -504 147 -775 215 -41 10 -111 27
-155 38 -106 26 -217 51 -285 62 -30 5 -129 23 -220 39 -244 44 -425 69 -605
81 -88 6 -198 16 -245 22 -142 19 -603 12 -860 -11 -373 -35 -640 -89 -885
-179 -44 -16 -114 -42 -155 -57 -116 -42 -318 -148 -447 -235 -199 -132 -339
-272 -412 -411 -50 -96 -71 -178 -71 -282 0 -175 57 -327 163 -431 72 -70 217
-144 336 -170 98 -22 343 -24 427 -3 32 9 79 18 104 22 25 4 115 22 200 40 85
18 216 45 290 58 323 61 289 56 729 89 163 11 465 3 786 -22 183 -15 730 -105
962 -159 48 -12 142 -32 208 -46 66 -14 136 -30 155 -35 63 -18 261 -66 455
-110 44 -10 118 -28 165 -40 47 -11 123 -29 170 -40 79 -18 363 -90 580 -146
97 -25 139 -35 340 -80 63 -14 153 -34 200 -45 273 -61 674 -135 920 -169 80
-11 154 -22 165 -25 20 -5 332 -37 535 -55 58 -5 255 -14 439 -21 335 -11 732
-2 971 22 52 5 140 14 195 19 367 36 890 148 1255 270 830 275 1478 663 2014
1204 243 246 388 424 581 716 170 258 196 305 360 655 108 232 241 648 309
965 34 164 85 512 106 730 11 116 12 806 1 910 -37 351 -88 678 -138 895 -25
108 -90 349 -139 515 -35 118 -139 409 -174 485 -5 11 -27 67 -50 125 -68 171
-238 531 -338 715 -86 157 -281 473 -411 664 -20 29 -43 63 -51 75 -123 181
-289 391 -500 631 -246 281 -313 349 -585 594 -276 249 -432 377 -630 515 -77
54 -156 109 -175 123 -244 174 -672 426 -982 577 -196 95 -234 112 -463 202
-104 41 -210 83 -235 93 -87 35 -537 181 -680 220 -144 39 -363 93 -430 106
-19 3 -71 15 -115 25 -279 64 -757 128 -1125 150 -178 11 -761 20 -900 14z
m-3925 -4390 c72 -71 72 -111 1 -180 -38 -37 -90 -70 -182 -116 -115 -57 -286
-156 -499 -288 -77 -47 -470 -309 -636 -424 -126 -87 -234 -151 -270 -159 -56
-14 -150 88 -136 145 13 50 165 185 397 353 389 282 593 410 915 575 190 97
268 128 327 129 42 1 52 -3 83 -35z m-2448 -1064 c60 -36 66 -134 16 -295
-100 -324 -381 -619 -712 -750 -65 -26 -86 -29 -182 -30 l-109 0 -35 35 c-76
77 -46 146 96 220 141 73 337 211 434 307 93 91 174 201 277 377 77 130 101
156 147 156 20 0 50 -9 68 -20z m2556 -106 c50 -24 80 -74 72 -118 -9 -43 -37
-81 -73 -100 -15 -7 -67 -23 -117 -34 -462 -108 -720 -175 -910 -235 -187 -60
-319 -97 -381 -109 -59 -10 -69 -10 -99 6 -45 25 -89 88 -82 118 10 37 67 88
132 119 64 30 306 126 389 153 28 10 111 33 185 52 75 19 177 46 226 60 215
58 450 100 572 103 30 0 67 -6 86 -15z m-5124 -1589 c16 -14 37 -45 46 -69 16
-41 16 -45 -3 -82 -55 -105 -243 -226 -447 -286 -74 -21 -98 -23 -300 -23
-206 1 -226 3 -310 27 -121 35 -170 57 -232 107 -89 70 -103 122 -51 185 36
43 16 43 243 11 91 -13 162 -16 295 -12 255 8 373 33 600 130 101 44 119 45
159 12z m1321 -61 c24 -23 25 -30 24 -142 0 -76 -6 -136 -16 -172 -9 -30 -22
-89 -28 -130 -22 -134 -68 -200 -142 -200 -35 0 -233 71 -328 118 -102 50
-200 144 -200 191 0 31 176 178 290 243 220 126 339 153 400 92z"/>
</g>
</svg>
